<svg xmlns="http://www.w3.org/2000/svg" width="127.14" height="121.085" viewBox="0 0 127.14 121.085">
  <g id="mail-forbid-line" transform="translate(-12.109 -18.163)" opacity="0.07">
    <path id="패스_23566" data-name="패스 23566" d="M110.977,28.658l-48,42.985L14.109,28.525V99.868h42.8a42.077,42.077,0,0,0,3.657,12.109H8.054A6.054,6.054,0,0,1,2,105.922V9.054A6.054,6.054,0,0,1,8.054,3H117.031a6.054,6.054,0,0,1,6.054,6.054V59.032a42.21,42.21,0,0,0-12.109-5.842Zm-3.021-13.549H17.2l45.71,40.333,45.05-40.333Zm-16.916,95.1a18.163,18.163,0,0,0,24.223-24.223L91.04,110.2Zm-8.567-8.567L106.7,77.425a18.163,18.163,0,0,0-24.223,24.223Zm16.395,22.443a30.271,30.271,0,1,1,30.271-30.271A30.271,30.271,0,0,1,98.868,124.085Z" transform="translate(10.109 15.163)"/>
  </g>
</svg>
